<?xml version="1.0" encoding="utf-8"?><svg height="24" width="24" fill="#03045e" version="1.1" id="Layer_1" xmlns="http://www.w3.org/2000/svg" xmlns:xlink="http://www.w3.org/1999/xlink" x="0px" y="0px" viewBox="0 0 112.58 120" style="enable-background:new 0 0 112.58 120" xml:space="preserve"><style type="text/css">.st0{fill-rule:evenodd;clip-rule:evenodd;}</style><g><path class="st0" d="M24.78,55.66h63.36v-19.2H67.96c-2.11,0-5.07-1.15-6.46-2.54c-1.39-1.39-2.25-3.91-2.25-6.03V7.46l0,0H7.96 c-0.18,0-0.31,0.09-0.41,0.18c-0.13,0.09-0.18,0.22-0.18,0.4V112c0,0.13,0.09,0.31,0.18,0.41c0.09,0.13,0.27,0.18,0.41,0.18 c22.25,0,56.72,0,79.6,0c0.18,0,0.17-0.09,0.26-0.18c0.13-0.09,0.33-0.27,0.33-0.41v-10.9H24.78c-4.05,0-7.38-3.32-7.38-7.38V63.04 C17.4,58.98,20.72,55.66,24.78,55.66L24.78,55.66z M28.8,66.13h19.63v5.07H36.16v3.78h11.37v4.84H36.16v4.68h12.63v5.37h-20V66.13 L28.8,66.13z M51.73,66.13h8.09l4.21,7.31l4.08-7.31h7.99l-7.38,11.5l8.07,12.24h-8.26l-4.66-7.63l-4.69,7.63H51l8.19-12.37 L51.73,66.13L51.73,66.13z M79.76,66.13h19.63v5.07H87.12v3.78H98.5v4.84H87.12v4.68h12.63v5.37h-20V66.13L79.76,66.13z M95.5,55.66h9.7c4.06,0,7.38,3.33,7.38,7.38v30.68c0,4.05-3.33,7.38-7.38,7.38h-9.7v13.23c0,1.57-0.63,2.97-1.66,4 c-1.03,1.03-2.43,1.66-4,1.66c-28.75,0-55.26,0-84.16,0c-1.57,0-2.97-0.63-4-1.66c-1.03-1.03-1.66-2.43-1.66-4V5.71 c0-1.57,0.63-2.97,1.66-4c1.03-1.03,2.47-1.66,4-1.66h57.34C63.15,0,63.28,0,63.42,0c0.63,0,1.26,0.27,1.71,0.67h0.09 c0.09,0.05,0.13,0.09,0.23,0.18l29.29,29.65c0.49,0.49,0.85,1.17,0.85,1.93c0,0.23-0.05,0.41-0.09,0.63V55.66L95.5,55.66z M65.94,27.31V8.73l20.92,21.19H68.55c-0.72,0-1.35-0.31-1.85-0.76C66.25,28.71,65.94,28.03,65.94,27.31L65.94,27.31z"/></g></svg>